HIERARCHY
ROOT hip
{
  OFFSET 0.0 0.0 0.0
  CHANNELS 6 Xposition Yposition Zposition Zrotation Yrotation Xrotation
  JOINT torso
  {
    OFFSET 0.0 0.0 0.0
    CHANNELS 3 Zrotation Xrotation Yrotation
    JOINT neck
    {
      OFFSET -8.059630999999968 325.56260699999996 64.6221310000002
      CHANNELS 3 Zrotation Xrotation Yrotation
      JOINT head
      {
        OFFSET 34.685424000000125 375.1179809999999 232.79357900000002
        CHANNELS 3 Zrotation Xrotation Yrotation
        End Site
        {
          OFFSET 0.0 0.0 0.0
        }
      }
    }
    JOINT left_collar
    {
      OFFSET -8.059630999999968 325.56260699999996 64.6221310000002
      CHANNELS 3 Zrotation Xrotation Yrotation
      JOINT left_upper_arm
      {
        OFFSET -124.124665 -15.370300999999927 25.582641999999964
        CHANNELS 3 Zrotation Xrotation Yrotation
        JOINT left_forearm
        {
          OFFSET -268.19913399999996 105.06054699999993 114.74548300000004
          CHANNELS 3 Zrotation Xrotation Yrotation
          JOINT left_hand
          {
            OFFSET -235.82003099999991 -10.198180999999977 -38.67455999999993
            CHANNELS 3 Zrotation Xrotation Yrotation
            End Site
            {
              OFFSET 0.0 0.0 0.0
            }
          }
        }
      }
    }
    JOINT right_collar
    {
      OFFSET -8.059630999999968 325.56260699999996 64.6221310000002
      CHANNELS 3 Zrotation Xrotation Yrotation
      JOINT right_upper_arm
      {
        OFFSET 162.73931899999997 -2.8598030000000563 26.244994999999903
        CHANNELS 3 Zrotation Xrotation Yrotation
        JOINT right_forearm
        {
          OFFSET 284.6506340000001 103.07031299999994 145.84521499999994
          CHANNELS 3 Zrotation Xrotation Yrotation
          JOINT right_hand
          {
            OFFSET 226.332337 -12.198241999999937 -49.27258299999994
            CHANNELS 3 Zrotation Xrotation Yrotation
            End Site
            {
              OFFSET 0.0 0.0 0.0
            }
          }
        }
      }
    }
  }
}
MOTION
Frames: 6
Frame Time: 0.01
167.4668781545692 191.88774323249808 983.0489882838677 1.2174177153883545 -6.611953274851038 3.32032671788568 -0.010841931358632957 1.5636699466599606 0.04082722505824067 1.2158792970542387 -2.2624645951389386 -0.5619292113234182 0.0 0.0 0.0 1.0715000602911935 -0.03903726582851492 1.951873355898842 5.536858112094837 2.951539699737448 1.9176802719972859 -53.81357855218198 -14.161079385998619 -50.67421141910168 0.0 0.0 0.0 -0.1161757737594076 0.03555025147527286 0.9021727311923193 -8.302004136923504 6.473632531383708 -9.152549477370247 45.374812710629996 -9.233404429722171 53.2074867202184 0.0 0.0 0.0
167.4940471299578 191.95784895396287 983.6015958642275 1.1804098553570657 -6.58038970924462 3.361449800218908 -0.011081754684970893 1.5506230378465913 0.04054809460998757 1.199643948860081 -2.2954459131938005 -0.548908357779645 0.0 0.0 0.0 1.0596488658561183 -0.03829556724562865 1.9294462241274395 5.508443125428047 2.9410994792790723 1.9197911549192783 -54.06830073357113 -14.392763137207645 -50.96898626565109 0.0 0.0 0.0 -0.12019299241529977 0.035399554045448096 0.8577222262672229 -8.32297048488844 6.458782062251863 -9.058753040506733 45.41911683295694 -9.33199605601497 53.43266276783805 0.0 0.0 0.0
167.4499960005653 192.02081346403466 984.0892164878252 1.146684991981023 -6.5455852625578785 3.4007473200194434 -0.011161243677612457 1.5378965234945374 0.040247226338669284 1.1845473549452206 -2.3275187785030744 -0.5366784078485958 0.0 0.0 0.0 1.0471023904588186 -0.037576517486404566 1.9061643574663778 5.478078983908599 2.92957437334986 1.9209122140012151 -54.32736990954697 -14.620251326175774 -51.24816313173312 0.0 0.0 0.0 -0.12401384504616146 0.03523399370278868 0.8144109670802056 -8.346322350399603 6.446191947471421 -8.970300001379417 45.46896514042651 -9.446129341277585 53.69349829188164 0.0 0.0 0.0
167.33892820269128 192.07547457608712 984.5166774742805 1.11604797940731 -6.508781928662685 3.4384030613696273 -0.011043862461500954 1.5260164565804601 0.03993082891545662 1.1706287160920286 -2.3585421058269054 -0.5252767628699502 0.0 0.0 0.0 1.034044321821429 -0.03689828628942023 1.88242182858327 5.446363358290611 2.9171701142542283 1.9209603157014439 -54.58964105517125 -14.84262134612917 -51.510906980527636 0.0 0.0 0.0 -0.12756576382840393 0.035054647248012515 0.7729290630211239 -8.371779631866689 6.435932665092497 -8.88790398760662 45.524029243427556 -9.574633416099198 53.98681181982889 0.0 0.0 0.0
167.1649845010909 192.12090514102718 984.8890731208959 1.0882789761520337 -6.471166671638785 3.47460229225774 -0.010684173533898812 1.5154488001213124 0.039601959060510346 1.1578809456497487 -2.3883907169781287 -0.514710235663542 0.0 0.0 0.0 1.020658012459669 -0.036282189149396876 1.8586383317998898 5.413834706380243 2.9040771457233583 1.919876868861162 -54.8537156592863 -15.058991247131042 -51.75670622635374 0.0 0.0 0.0 -0.1307913425658474 0.03486447079718653 0.7339222183583908 -8.398987440559194 6.428000680132153 -8.812104681508197 45.58391390655076 -9.71625725441032 54.30926401258427 0.0 0.0 0.0
166.9322589630027 192.1564031630366 985.2116510529398 1.063144121427316 -6.433846685378363 3.5095313840669866 -0.010031317306923852 1.5065892523165134 0.03926092456427077 1.146255368916742 -2.4169603198838843 -0.5049575534484236 0.0 0.0 0.0 1.007121001820402 -0.035751737058767885 1.8352443984542424 5.380957993874152 2.8904666007287885 1.9176323745970012 -55.1179537952291 -15.26852897091888 -51.98537589759936 0.0 0.0 0.0 -0.13365109726442226 0.03466834961907201 0.69797307902094 -8.4275218683552 6.422318608403102 -8.743259778377238 45.648171874794826 -9.869693053099606 54.65742311783705 0.0 0.0 0.0
